<mxfile host="Electron" agent="Mozilla/5.0 (Windows NT 10.0; Win64; x64) AppleWebKit/537.36 (KHTML, like Gecko) draw.io/27.0.9 Chrome/134.0.6998.205 Electron/35.4.0 Safari/537.36" version="27.0.9">
  <diagram name="Page-1" id="6oNKckcs_LfKx75o0hvV">
    <mxGraphModel dx="1426" dy="841" grid="1" gridSize="10" guides="1" tooltips="1" connect="1" arrows="1" fold="1" page="1" pageScale="1" pageWidth="850" pageHeight="1100" math="0" shadow="0">
      <root>
        <mxCell id="0" />
        <mxCell id="1" parent="0" />
        <mxCell id="i_2me9WWOOrB4e6M6qqH-1" value="&lt;div&gt;&lt;br&gt;&lt;/div&gt;&lt;div&gt;&lt;br&gt;&lt;/div&gt;&lt;div&gt;&lt;br&gt;&lt;/div&gt;&lt;div&gt;&lt;br&gt;&lt;/div&gt;&lt;div&gt;&lt;br&gt;&lt;/div&gt;&lt;div&gt;&lt;br&gt;&lt;/div&gt;&lt;div&gt;&lt;br&gt;&lt;/div&gt;&lt;div&gt;&lt;br&gt;&lt;/div&gt;&lt;div&gt;&lt;br&gt;&lt;/div&gt;&lt;div&gt;&lt;br&gt;&lt;/div&gt;&lt;div&gt;&lt;br&gt;&lt;/div&gt;&lt;div&gt;&lt;br&gt;&lt;/div&gt;&lt;div&gt;&lt;br&gt;&lt;/div&gt;&lt;div&gt;&lt;br&gt;&lt;/div&gt;&lt;div&gt;&lt;br&gt;&lt;/div&gt;&lt;div&gt;&lt;br&gt;&lt;/div&gt;&lt;div&gt;&lt;br&gt;&lt;/div&gt;Background Image&amp;nbsp;" style="rounded=0;whiteSpace=wrap;html=1;" parent="1" vertex="1">
          <mxGeometry x="80" y="40" width="690" height="430" as="geometry" />
        </mxCell>
        <mxCell id="i_2me9WWOOrB4e6M6qqH-2" value="Navbar (Home, View Galleries, About, Contact, Login/Register (after you log in it will update to say My Account))" style="rounded=0;whiteSpace=wrap;html=1;" parent="1" vertex="1">
          <mxGeometry x="80" y="40" width="690" height="30" as="geometry" />
        </mxCell>
        <mxCell id="i_2me9WWOOrB4e6M6qqH-3" value="Copyright text for the background image of mine" style="text;html=1;align=center;verticalAlign=middle;whiteSpace=wrap;rounded=0;" parent="1" vertex="1">
          <mxGeometry x="293" y="430" width="265" height="30" as="geometry" />
        </mxCell>
        <mxCell id="i_2me9WWOOrB4e6M6qqH-4" value="&lt;b&gt;Register&lt;/b&gt;" style="text;html=1;align=center;verticalAlign=middle;whiteSpace=wrap;rounded=0;" parent="1" vertex="1">
          <mxGeometry x="357" y="90" width="137" height="70" as="geometry" />
        </mxCell>
        <mxCell id="iaqbVzKPy1VqYS4T5guI-1" value="Register" style="rounded=1;whiteSpace=wrap;html=1;" vertex="1" parent="1">
          <mxGeometry x="383" y="290" width="85" height="30" as="geometry" />
        </mxCell>
        <mxCell id="iaqbVzKPy1VqYS4T5guI-2" value="First Name" style="rounded=0;whiteSpace=wrap;html=1;" vertex="1" parent="1">
          <mxGeometry x="365" y="150" width="120" height="20" as="geometry" />
        </mxCell>
        <mxCell id="iaqbVzKPy1VqYS4T5guI-3" value="Last Name" style="rounded=0;whiteSpace=wrap;html=1;" vertex="1" parent="1">
          <mxGeometry x="365.5" y="180" width="120" height="20" as="geometry" />
        </mxCell>
        <mxCell id="iaqbVzKPy1VqYS4T5guI-4" value="Email" style="rounded=0;whiteSpace=wrap;html=1;" vertex="1" parent="1">
          <mxGeometry x="365" y="210" width="120" height="20" as="geometry" />
        </mxCell>
        <mxCell id="iaqbVzKPy1VqYS4T5guI-5" value="Password" style="rounded=0;whiteSpace=wrap;html=1;" vertex="1" parent="1">
          <mxGeometry x="365.5" y="240" width="120" height="20" as="geometry" />
        </mxCell>
      </root>
    </mxGraphModel>
  </diagram>
</mxfile>
